<?xml version="1.0" encoding="UTF-8"?>
<svg xmlns="http://www.w3.org/2000/svg" xmlns:xlink="http://www.w3.org/1999/xlink" width="30pt" height="30pt"
     viewBox="0 0 30 30" version="1.1">
    <g id="surface1">
        <path style=" stroke:none;fill-rule:nonzero;fill:rgb(33.333333%,34.117647%,32.54902%);fill-opacity:1;"
              d="M 15 2.308594 C 12.503906 2.308594 10.179688 3.035156 8.214844 4.285156 L 5.5625 1.628906 L 5.5625 9.066406 L 12.996094 9.066406 L 10.046875 6.113281 C 11.511719 5.289062 13.199219 4.8125 15 4.8125 C 20.617188 4.8125 25.1875 9.382812 25.1875 15 C 25.1875 16.339844 24.921875 17.613281 24.449219 18.785156 L 26.636719 20.058594 C 27.316406 18.507812 27.691406 16.796875 27.691406 15 C 27.691406 8 22 2.308594 15 2.308594 Z M 15 2.308594 "/>
        <path style=" stroke:none;fill-rule:nonzero;fill:rgb(33.333333%,34.117647%,32.54902%);fill-opacity:1;"
              d="M 19.949219 23.882812 C 18.484375 24.707031 16.800781 25.1875 15 25.1875 C 9.382812 25.1875 4.8125 20.617188 4.8125 15 C 4.8125 13.734375 5.054688 12.53125 5.476562 11.414062 L 3.292969 10.097656 C 2.660156 11.605469 2.308594 13.261719 2.308594 15 C 2.308594 22 8 27.691406 15 27.691406 C 17.496094 27.691406 19.816406 26.960938 21.78125 25.710938 L 24.4375 28.371094 L 24.4375 20.933594 L 17.003906 20.933594 Z M 19.949219 23.882812 "/>
    </g>
</svg>
